# xmcd
#
# Track frame offsets: 
#        150
#        16223
#        29755
#        45556
#        56735
#        69774
#        87319
#        102511
#        117429
#        130695
#        146107
#        161609
#        174986
#        187122
#        206633
#        220865
#        233582
#        247209
#        259890
#        273811
#        284032
#        296335
#
# Disc length: 4132 seconds
#
# Revision: 1
# Processed by: cddbd v1.5.1PL0 Copyright (c) Steve Scherf et al.
# Submitted via: ExactAudioCopy v0.95a5
#
DISCID=52102216
DTITLE=Various Artist - Classic Songs Of The Motown Era Vol. 2 [CD4]
DYEAR=2001
DGENRE=Pop/Rock
TTITLE0=Rufus Featuring Chaka Khan - Tell Me Something Good
TTITLE1=Marvin Gaye - Too Busy Thinking About My Baby
TTITLE2=The Commodores - Too Hot Ta Trot
TTITLE3=The Marvelettes - Too Many Fish In The Sea
TTITLE4=Stevie Wonder - Travlin' Man
TTITLE5=Marvin Gaye - Trouble Man
TTITLE6=Edwin Starr - Twenty Five Miles
TTITLE7=The Supremes - Up The Ladder To The Roof
TTITLE8=Stevie Wonder - Uptight (Everything's Alright)
TTITLE9=Edwin Starr - War
TTITLE10=Rare Earth - We're Gonna Have A Good Time
TTITLE11=The Jackson 5 - Whatever You Got I Want
TTITLE12=Michael Jackson - When I Come Of Age
TTITLE13=Frankie Valli and The Four Seasons - Who Loves You
TTITLE14=The Miracles - You Can Depend On Me
TTITLE15=The Supremes and The Four Tops - You Gotta Have Love In Your He
TTITLE15=art
TTITLE16=The Jackson 5 - You Made Me What I Am
TTITLE17=Marvin Gaye - You're A Wonderful One
TTITLE18=The Marvelettes - You're My Remedy
TTITLE19=Marvin Gaye - You've Been A Long Time Coming
TTITLE20=Marv Johnson - You've Got What It Takes
TTITLE21=Marvin Gaye and Tammi Terrell - Your Precious Love
EXTD=
EXTT0=
EXTT1=
EXTT2=
EXTT3=
EXTT4=
EXTT5=
EXTT6=
EXTT7=
EXTT8=
EXTT9=
EXTT10=
EXTT11=
EXTT12=
EXTT13=
EXTT14=
EXTT15=
EXTT16=
EXTT17=
EXTT18=
EXTT19=
EXTT20=
EXTT21=
PLAYORDER=
